<svg width="45" height="46" viewBox="0 0 45 46" fill="none" xmlns="http://www.w3.org/2000/svg">
<path d="M40.7812 20.3125C43.0664 20.3125 45 18.4668 45 16.0938C45 13.8086 43.0664 11.875 40.7812 11.875C38.4082 11.875 36.5625 13.8086 36.5625 16.0938C36.5625 18.4668 38.4082 20.3125 40.7812 20.3125ZM24.5215 16.3574C24.9609 16.1816 25.4883 16.1816 25.9277 16.1816C25.9277 16.1816 25.9277 16.0938 26.0156 16.0938C26.543 16.1816 27.1582 16.2695 27.6855 16.4453L29.0039 12.1387C29.0918 11.9629 29.0918 11.7871 29.0918 11.5234C29.0918 10.4688 28.3008 9.58984 27.2461 9.41406C26.1914 9.32617 25.2246 10.0293 24.9609 10.9961L23.1152 16.7969L24.5215 16.3574ZM5.36133 34.6387C5.44922 34.6387 5.53711 34.5508 5.625 34.5508V32.2656C5.625 26.2012 9.49219 21.1035 15.0293 19.2578L21.4453 17.3242L24.4336 7.83203C24.5215 7.56836 24.6094 7.39258 24.6094 7.12891C24.6094 6.07422 23.7305 5.19531 22.6758 5.01953C21.709 4.93164 20.7422 5.63477 20.3906 6.60156L17.4902 15.918C17.4023 16.2695 17.1387 16.4453 16.7871 16.4453C16.4355 16.4453 16.084 16.0938 16.084 15.7422C16.084 15.6543 16.084 15.5664 16.1719 15.5664L19.9512 3.4375C20.0391 3.17383 20.0391 2.99805 20.0391 2.82227C20.0391 1.67969 19.248 0.800781 18.1934 0.712891C17.1387 0.537109 16.2598 1.24023 15.9082 2.20703L11.6895 15.5664C11.6016 15.8301 11.3379 16.0059 10.9863 16.0059C10.6348 16.0059 10.2832 15.7422 10.2832 15.3027C10.2832 15.3027 10.3711 15.2148 10.3711 15.127L13.7109 4.4043C13.7988 4.22852 13.7988 3.96484 13.7988 3.78906C13.7988 2.64648 13.0078 1.76758 11.9531 1.67969C10.9863 1.50391 10.0195 2.20703 9.66797 3.17383L4.39453 19.873L4.21875 15.4785C4.21875 14.3359 3.33984 13.3691 2.10938 13.3691C0.966797 13.3691 0 14.3359 0 15.4785V25.4102C0 29.3652 2.19727 32.793 5.36133 34.6387ZM42.8027 30.1562H28.8281C28.3887 30.1562 28.125 29.8926 28.125 29.4531C28.125 29.1016 28.3887 28.75 28.8281 28.75H40.0781C41.2207 28.75 42.1875 27.8711 42.1875 26.6406C42.1875 26.5527 42.0996 26.377 42.0996 26.2891C41.9238 25.2344 40.957 24.5312 39.9902 24.5312H22.5L26.6309 23.0371C27.4219 22.7734 28.125 21.9824 28.125 21.0156C28.125 19.873 27.1582 18.9062 26.0156 18.9062C25.752 18.9062 25.5762 18.9941 25.3125 19.082L15.9082 21.9824C11.5137 23.3887 8.4375 27.5195 8.4375 32.2656V34.5508C11.6016 35.166 13.9746 38.0664 13.9746 41.4062C13.9746 42.373 13.7988 43.252 13.5352 44.1309C15.1172 45.0977 16.9629 45.625 18.9844 45.625H37.2656C38.4082 45.625 39.375 44.7461 39.375 43.5156C39.375 43.4277 39.2871 43.252 39.2871 43.1641C39.1113 42.1094 38.1445 41.4062 37.1777 41.4062H28.8281C28.3887 41.4062 28.125 41.1426 28.125 40.7031C28.125 40.3516 28.3887 40 28.8281 40H40.0781C41.2207 40 42.1875 39.1211 42.1875 37.8906C42.1875 37.8027 42.0996 37.627 42.0996 37.5391C41.9238 36.4844 40.957 35.7812 39.9902 35.7812H28.8281C28.3887 35.7812 28.125 35.5176 28.125 35.0781C28.125 34.7266 28.3887 34.375 28.8281 34.375H42.8906C44.0332 34.375 45 33.4961 45 32.2656C45 32.1777 44.9121 32.002 44.9121 31.9141C44.7363 30.8594 43.7695 30.1562 42.8027 30.1562ZM33.75 6.25C35.2441 6.25 36.5625 5.01953 36.5625 3.4375C36.5625 1.94336 35.2441 0.625 33.75 0.625C32.168 0.625 30.9375 1.94336 30.9375 3.4375C30.9375 5.01953 32.168 6.25 33.75 6.25ZM7.03125 37.1875C4.6582 37.1875 2.8125 39.1211 2.8125 41.4062C2.8125 43.7793 4.6582 45.625 7.03125 45.625C9.31641 45.625 11.25 43.7793 11.25 41.4062C11.25 39.1211 9.31641 37.1875 7.03125 37.1875Z" fill="#3DB2FF"/>
</svg>
