<svg width="46" height="46" viewBox="0 0 46 46" fill="none" xmlns="http://www.w3.org/2000/svg">
<path d="M41.2812 20.3125C43.5664 20.3125 45.5 18.4668 45.5 16.0938C45.5 13.8086 43.5664 11.875 41.2812 11.875C38.9082 11.875 37.0625 13.8086 37.0625 16.0938C37.0625 18.4668 38.9082 20.3125 41.2812 20.3125ZM25.0215 16.3574C25.4609 16.1816 25.9883 16.1816 26.4277 16.1816C26.4277 16.1816 26.4277 16.0938 26.5156 16.0938C27.043 16.1816 27.6582 16.2695 28.1855 16.4453L29.5039 12.1387C29.5918 11.9629 29.5918 11.7871 29.5918 11.5234C29.5918 10.4688 28.8008 9.58984 27.7461 9.41406C26.6914 9.32617 25.7246 10.0293 25.4609 10.9961L23.6152 16.7969L25.0215 16.3574ZM5.86133 34.6387C5.94922 34.6387 6.03711 34.5508 6.125 34.5508V32.2656C6.125 26.2012 9.99219 21.1035 15.5293 19.2578L21.9453 17.3242L24.9336 7.83203C25.0215 7.56836 25.1094 7.39258 25.1094 7.12891C25.1094 6.07422 24.2305 5.19531 23.1758 5.01953C22.209 4.93164 21.2422 5.63477 20.8906 6.60156L17.9902 15.918C17.9023 16.2695 17.6387 16.4453 17.2871 16.4453C16.9355 16.4453 16.584 16.0938 16.584 15.7422C16.584 15.6543 16.584 15.5664 16.6719 15.5664L20.4512 3.4375C20.5391 3.17383 20.5391 2.99805 20.5391 2.82227C20.5391 1.67969 19.748 0.800781 18.6934 0.712891C17.6387 0.537109 16.7598 1.24023 16.4082 2.20703L12.1895 15.5664C12.1016 15.8301 11.8379 16.0059 11.4863 16.0059C11.1348 16.0059 10.7832 15.7422 10.7832 15.3027C10.7832 15.3027 10.8711 15.2148 10.8711 15.127L14.2109 4.4043C14.2988 4.22852 14.2988 3.96484 14.2988 3.78906C14.2988 2.64648 13.5078 1.76758 12.4531 1.67969C11.4863 1.50391 10.5195 2.20703 10.168 3.17383L4.89453 19.873L4.71875 15.4785C4.71875 14.3359 3.83984 13.3691 2.60938 13.3691C1.4668 13.3691 0.5 14.3359 0.5 15.4785V25.4102C0.5 29.3652 2.69727 32.793 5.86133 34.6387ZM43.3027 30.1562H29.3281C28.8887 30.1562 28.625 29.8926 28.625 29.4531C28.625 29.1016 28.8887 28.75 29.3281 28.75H40.5781C41.7207 28.75 42.6875 27.8711 42.6875 26.6406C42.6875 26.5527 42.5996 26.377 42.5996 26.2891C42.4238 25.2344 41.457 24.5312 40.4902 24.5312H23L27.1309 23.0371C27.9219 22.7734 28.625 21.9824 28.625 21.0156C28.625 19.873 27.6582 18.9062 26.5156 18.9062C26.252 18.9062 26.0762 18.9941 25.8125 19.082L16.4082 21.9824C12.0137 23.3887 8.9375 27.5195 8.9375 32.2656V34.5508C12.1016 35.166 14.4746 38.0664 14.4746 41.4062C14.4746 42.373 14.2988 43.252 14.0352 44.1309C15.6172 45.0977 17.4629 45.625 19.4844 45.625H37.7656C38.9082 45.625 39.875 44.7461 39.875 43.5156C39.875 43.4277 39.7871 43.252 39.7871 43.1641C39.6113 42.1094 38.6445 41.4062 37.6777 41.4062H29.3281C28.8887 41.4062 28.625 41.1426 28.625 40.7031C28.625 40.3516 28.8887 40 29.3281 40H40.5781C41.7207 40 42.6875 39.1211 42.6875 37.8906C42.6875 37.8027 42.5996 37.627 42.5996 37.5391C42.4238 36.4844 41.457 35.7812 40.4902 35.7812H29.3281C28.8887 35.7812 28.625 35.5176 28.625 35.0781C28.625 34.7266 28.8887 34.375 29.3281 34.375H43.3906C44.5332 34.375 45.5 33.4961 45.5 32.2656C45.5 32.1777 45.4121 32.002 45.4121 31.9141C45.2363 30.8594 44.2695 30.1562 43.3027 30.1562ZM34.25 6.25C35.7441 6.25 37.0625 5.01953 37.0625 3.4375C37.0625 1.94336 35.7441 0.625 34.25 0.625C32.668 0.625 31.4375 1.94336 31.4375 3.4375C31.4375 5.01953 32.668 6.25 34.25 6.25ZM7.53125 37.1875C5.1582 37.1875 3.3125 39.1211 3.3125 41.4062C3.3125 43.7793 5.1582 45.625 7.53125 45.625C9.81641 45.625 11.75 43.7793 11.75 41.4062C11.75 39.1211 9.81641 37.1875 7.53125 37.1875Z" fill="#3DB2FF"/>
</svg>
