<svg width="45" height="44" viewBox="0 0 45 44" fill="none" xmlns="http://www.w3.org/2000/svg">
<path d="M44.2969 22.125C44.209 10.084 34.4531 0.328125 22.5 0.328125C16.6113 0.328125 11.3379 2.70117 7.38281 6.39258L3.07617 2.08594C2.19727 1.20703 0.703125 1.82227 0.703125 3.05273V15.7969C0.703125 16.5879 1.31836 17.2031 2.10938 17.2031H14.8535C16.084 17.2031 16.6992 15.709 15.8203 14.8301L11.3379 10.3477C14.2383 7.62305 18.1934 5.95312 22.5 5.95312C31.377 5.95312 38.6719 13.248 38.6719 22.125C38.6719 31.0898 31.377 38.2969 22.5 38.2969C18.6328 38.2969 15.2051 37.0664 12.3926 34.8691C11.6016 34.166 10.3711 34.2539 9.58008 35.0449L8.61328 36.0117C7.73438 36.8906 7.82227 38.3848 8.78906 39.1758C12.4805 42.1641 17.3145 44.0098 22.5 43.9219C34.4531 43.9219 44.2969 34.166 44.2969 22.125ZM28.3887 29.0684L29.1797 27.9258C29.9707 27.0469 29.7949 25.7285 28.8281 25.0254L25.3125 22.2129V12.9844C25.3125 11.8418 24.3457 10.875 23.2031 10.875H21.7969C20.5664 10.875 19.6875 11.8418 19.6875 12.9844V24.9375L25.4004 29.4199C26.2793 30.123 27.5977 29.9473 28.3887 29.0684Z" fill="#FFB830"/>
</svg>
